<svg width="17" height="16" viewBox="0 0 17 16" fill="none" xmlns="http://www.w3.org/2000/svg">
<path fill-rule="evenodd" clip-rule="evenodd" d="M4.5 8C4.5 8.09626 4.50172 8.19214 4.50512 8.28761C4.16604 8.52999 3.84626 8.80437 3.55025 9.10883C2.2375 10.4591 1.5 12.2904 1.5 14.2C1.5 14.3945 1.52387 14.5841 1.5477 14.7735C1.5572 14.8489 1.56669 14.9243 1.57467 15H3.6C4.09164 13.9401 4.89211 13.0618 5.88336 12.4952C6.5585 13.4956 7.4522 14.3504 8.5 15C9.5478 14.3504 10.4415 13.4956 11.1166 12.4952C12.1079 13.0618 12.9084 13.9401 13.4 15H15.4253C15.4323 14.9402 15.44 14.8806 15.4476 14.8212C15.4739 14.6168 15.5 14.4132 15.5 14.2C15.5 13.2545 15.3189 12.3182 14.9672 11.4447C14.6154 10.5711 14.0998 9.77741 13.4497 9.10883C13.1551 8.80575 12.8354 8.53109 12.4949 8.28764C12.4983 8.19217 12.5 8.09628 12.5 8C12.5 5.06962 10.9064 2.49183 8.5 1C6.0936 2.49183 4.5 5.06805 4.5 8ZM8.5 7.07031C9.38596 7.07031 10.1042 6.3521 10.1042 5.46615C10.1042 4.58019 9.38596 3.86198 8.5 3.86198C7.61404 3.86198 6.89583 4.58019 6.89583 5.46615C6.89583 6.3521 7.61404 7.07031 8.5 7.07031Z" fill="black"/>
</svg>
