<svg width="16" height="16" viewBox="0 0 16 16" fill="none" xmlns="http://www.w3.org/2000/svg">
<path d="M8 8.257C6.562 8.257 5.197 8.048 4.158 7.666C3.74595 7.52398 3.35608 7.32433 3 7.073V8.486C3 9.494 5.239 10.313 8 10.313C10.761 10.313 13 9.495 13 8.486V7.073C12.643 7.323 12.253 7.523 11.842 7.667C10.802 8.047 9.438 8.255 8 8.255V8.257ZM8 11.947C6.562 11.947 5.197 11.739 4.158 11.357C3.74638 11.2144 3.35664 11.0151 3 10.765V12.171C3 13.182 5.239 14 8 14C10.761 14 13 13.181 13 12.172V10.765C12.642 11.015 12.253 11.214 11.842 11.356C10.802 11.739 9.438 11.947 8 11.947ZM8 2C5.238 2 3 2.819 3 3.828V4.802C3 5.812 5.239 6.627 8 6.627C10.761 6.627 13 5.812 13 4.802V3.828C13 2.818 10.761 2 8 2Z" fill="black"/>
</svg>
