<svg width="17" height="16" viewBox="0 0 17 16" fill="none" xmlns="http://www.w3.org/2000/svg">
<path fill-rule="evenodd" clip-rule="evenodd" d="M8.18334 6.36123H13.8245C13.9192 6.36118 14.0123 6.38573 14.0946 6.43248C14.177 6.47924 14.2458 6.54658 14.2943 6.62793C14.3428 6.70927 14.3693 6.80182 14.3713 6.8965C14.3732 6.99119 14.3506 7.08476 14.3055 7.16804L8.4162 15.856C8.26971 16.1272 7.85537 15.985 7.90675 15.6811L9.27658 9.64096H3.63546C3.54075 9.64101 3.44766 9.61646 3.3653 9.5697C3.28294 9.52295 3.21414 9.4556 3.16564 9.37426C3.11715 9.29291 3.09062 9.20037 3.08865 9.10568C3.08668 9.011 3.10935 8.91743 3.15443 8.83414L9.047 0.143964C9.1924 -0.12716 9.60456 0.0149618 9.55536 0.318883L8.18334 6.36123Z" fill="black"/>
</svg>
