<svg width="16" height="16" viewBox="0 0 16 16" fill="none" xmlns="http://www.w3.org/2000/svg">
<path d="M3.133 3H1V1H4.867L5.295 4H15L15.004 9.05L4.274 10.998L3.133 3ZM15 13.5C15 13.8978 14.842 14.2794 14.5607 14.5607C14.2794 14.842 13.8978 15 13.5 15C13.1022 15 12.7206 14.842 12.4393 14.5607C12.158 14.2794 12 13.8978 12 13.5C12 13.1022 12.158 12.7206 12.4393 12.4393C12.7206 12.158 13.1022 12 13.5 12C13.8978 12 14.2794 12.158 14.5607 12.4393C14.842 12.7206 15 13.1022 15 13.5ZM5.5 15C5.89782 15 6.27936 14.842 6.56066 14.5607C6.84196 14.2794 7 13.8978 7 13.5C7 13.1022 6.84196 12.7206 6.56066 12.4393C6.27936 12.158 5.89782 12 5.5 12C5.10218 12 4.72064 12.158 4.43934 12.4393C4.15804 12.7206 4 13.1022 4 13.5C4 13.8978 4.15804 14.2794 4.43934 14.5607C4.72064 14.842 5.10218 15 5.5 15Z" fill="black"/>
</svg>
