<svg width="17" height="16" viewBox="0 0 17 16" fill="none" xmlns="http://www.w3.org/2000/svg">
<path opacity="0.5" d="M7.40906 3.09091V4.18182H15.0454V3.09091H7.40906ZM7.40906 8.54546H15.0454V7.45455H7.40906V8.54546ZM7.40906 12.9091H15.0454V11.8182H7.40906V12.9091Z" fill="black"/>
<path d="M3.59092 5.27273C4.46365 5.27273 5.22729 4.50909 5.22729 3.63636C5.22729 2.76364 4.46365 2 3.59092 2C2.7182 2 1.95456 2.76364 1.95456 3.63636C1.95456 4.50909 2.7182 5.27273 3.59092 5.27273ZM3.59092 6.36364C2.7182 6.36364 1.95456 7.12727 1.95456 8C1.95456 8.87273 2.7182 9.63636 3.59092 9.63636C4.46365 9.63636 5.22729 8.87273 5.22729 8C5.22729 7.12727 4.46365 6.36364 3.59092 6.36364ZM3.59092 10.7273C2.7182 10.7273 1.95456 11.4909 1.95456 12.3636C1.95456 13.2364 2.7182 14 3.59092 14C4.46365 14 5.22729 13.2364 5.22729 12.3636C5.22729 11.4909 4.46365 10.7273 3.59092 10.7273Z" fill="black"/>
</svg>
