<svg width="17" height="16" viewBox="0 0 17 16" fill="none" xmlns="http://www.w3.org/2000/svg">
<path d="M16.5 9V7L13.8257 6.48571C13.71 6.07329 13.5462 5.67589 13.3377 5.30171L14.8657 3.03886L13.4486 1.624L11.1971 3.15086C10.8212 2.94271 10.4223 2.77895 10.0086 2.66286L9.49771 0H7.49771L6.98343 2.67429C6.57302 2.789 6.17782 2.95245 5.80629 3.16114L3.55143 1.63429L2.13429 3.05143L3.66229 5.30286C3.45346 5.67702 3.28929 6.07441 3.17314 6.48686L0.5 6.99886V8.99886L3.17429 9.51543C3.29086 9.93143 3.45429 10.3269 3.66229 10.6971L2.13429 12.9486L3.55143 14.3634L5.80286 12.8377C6.172 13.0469 6.56857 13.2069 6.98457 13.3291L7.49886 16H9.49886L10.0154 13.328C10.4267 13.2096 10.8232 13.0447 11.1971 12.8366L13.4509 14.3611L14.8646 12.9474L13.3331 10.696C13.5389 10.3189 13.6989 9.93029 13.8246 9.50743L16.5 8.99429V9ZM8.5 11.1806C7.65661 11.1806 6.84777 10.8455 6.2514 10.2492C5.65504 9.65281 5.32 8.84396 5.32 8.00057C5.32 7.15718 5.65504 6.34834 6.2514 5.75197C6.84777 5.15561 7.65661 4.82057 8.5 4.82057C9.34339 4.82057 10.1522 5.15561 10.7486 5.75197C11.345 6.34834 11.68 7.15718 11.68 8.00057C11.68 8.84396 11.345 9.65281 10.7486 10.2492C10.1522 10.8455 9.34339 11.1806 8.5 11.1806Z" fill="black"/>
</svg>
