<svg width="17" height="16" viewBox="0 0 17 16" fill="none" xmlns="http://www.w3.org/2000/svg">
<path fill-rule="evenodd" clip-rule="evenodd" d="M6.0885 3.90651C6.0885 3.31471 6.3236 2.74715 6.74206 2.32868C7.16053 1.91022 7.72809 1.67512 8.31989 1.67512C8.9117 1.67512 9.47926 1.91022 9.89773 2.32868C10.3162 2.74715 10.5513 3.31471 10.5513 3.90651C10.5513 4.10378 10.6296 4.29297 10.7691 4.43246C10.9086 4.57195 11.0978 4.65031 11.2951 4.65031C11.4923 4.65031 11.6815 4.57195 11.821 4.43246C11.9605 4.29297 12.0389 4.10378 12.0389 3.90651C12.039 3.28004 11.8809 2.66369 11.5791 2.11467C11.2774 1.56564 10.8419 1.10173 10.313 0.765994C9.78407 0.430255 9.17892 0.233568 8.55368 0.194185C7.92845 0.154803 7.3034 0.274002 6.73655 0.54072C6.16969 0.807438 5.6794 1.21303 5.31117 1.71986C4.94294 2.22669 4.70871 2.81832 4.63022 3.43985C4.55172 4.06139 4.63151 4.69268 4.86218 5.27514C5.09284 5.8576 5.46691 6.37235 5.94966 6.77162L3.69645 10.9944C3.60361 11.1685 3.58373 11.3724 3.6412 11.5612C3.69867 11.7499 3.82878 11.9082 4.0029 12.001C4.17702 12.0939 4.38089 12.1137 4.56967 12.0563C4.75844 11.9988 4.91666 11.8687 5.0095 11.6946L7.5761 6.8817C7.6221 6.79549 7.65067 6.70106 7.66016 6.60381C7.66966 6.50656 7.6599 6.40838 7.63144 6.3149C7.60298 6.22142 7.55639 6.13447 7.49431 6.059C7.43223 5.98354 7.35589 5.92105 7.26965 5.8751C6.91288 5.68478 6.61453 5.40109 6.40649 5.05436C6.19845 4.70762 6.08854 4.31087 6.0885 3.90651ZM7.93716 3.26884C8.02095 3.21842 8.11385 3.18502 8.21056 3.17054C8.30727 3.15606 8.40588 3.16079 8.50075 3.18446C8.59563 3.20814 8.68491 3.25029 8.76348 3.3085C8.84205 3.36671 8.90837 3.43985 8.95864 3.52372L11.5451 7.83675C12.1333 7.62951 12.7642 7.57352 13.3797 7.67393C13.9952 7.77435 14.5756 8.02795 15.0674 8.41139C15.5593 8.79484 15.9468 9.29581 16.1944 9.86824C16.4419 10.4407 16.5415 11.0661 16.484 11.6871C16.4266 12.3082 16.2138 12.9047 15.8654 13.422C15.517 13.9393 15.0441 14.3606 14.4903 14.6473C13.9364 14.9339 13.3193 15.0767 12.6958 15.0624C12.0723 15.0481 11.4625 14.8773 10.9223 14.5656C10.7514 14.4667 10.6269 14.304 10.576 14.1133C10.5252 13.9226 10.5521 13.7194 10.651 13.5486C10.7499 13.3778 10.9126 13.2532 11.1034 13.2024C11.2941 13.1515 11.4972 13.1785 11.668 13.2774C12.0087 13.4736 12.3951 13.5763 12.7882 13.5752C13.1813 13.5741 13.5672 13.4691 13.9067 13.2709C14.2462 13.0727 14.5273 12.7884 14.7216 12.4467C14.9159 12.1049 15.0164 11.7179 15.0131 11.3248C15.0098 10.9317 14.9026 10.5465 14.7025 10.2081C14.5025 9.86973 14.2166 9.59021 13.8737 9.39784C13.5309 9.20547 13.1433 9.10709 12.7503 9.11264C12.3572 9.11819 11.9726 9.22749 11.6353 9.42946C11.5516 9.47993 11.4587 9.51339 11.3621 9.52794C11.2654 9.5425 11.1668 9.53785 11.072 9.51427C10.9771 9.49069 10.8878 9.44864 10.8092 9.39052C10.7306 9.33241 10.6642 9.25937 10.6138 9.17558L7.68229 4.28933C7.63187 4.20555 7.59846 4.11265 7.58398 4.01594C7.56951 3.91923 7.57424 3.82062 7.59791 3.72574C7.62158 3.63086 7.66373 3.54159 7.72195 3.46302C7.78016 3.38445 7.85329 3.31813 7.93716 3.26785V3.26884ZM3.58404 8.95931C3.63518 8.76888 3.60862 8.56594 3.51019 8.39509L3.50919 8.3941C3.41048 8.22349 3.24807 8.09904 3.05766 8.04809C2.86725 7.99714 2.66439 8.02385 2.49366 8.12236C1.95545 8.43289 1.5036 8.87328 1.17936 9.40334C0.855115 9.9334 0.668813 10.5362 0.63746 11.1568C0.606107 11.7774 0.730703 12.3959 0.999872 12.956C1.26904 13.516 1.67421 13.9997 2.17838 14.3629C2.68255 14.7261 3.26967 14.9572 3.88613 15.0351C4.50259 15.113 5.12875 15.0353 5.70745 14.809C6.28614 14.5827 6.79893 14.2151 7.19901 13.7397C7.59908 13.2642 7.87369 12.6961 7.99776 12.0873H12.7829C12.9801 12.0873 13.1693 12.0089 13.3088 11.8694C13.4483 11.73 13.5266 11.5408 13.5266 11.3435C13.5266 11.1462 13.4483 10.957 13.3088 10.8176C13.1693 10.6781 12.9801 10.5997 12.7829 10.5997H7.32834C7.23058 10.5997 7.13378 10.619 7.04348 10.6564C6.95317 10.6939 6.87113 10.7487 6.80205 10.8179C6.73297 10.8871 6.6782 10.9692 6.64088 11.0595C6.60356 11.1499 6.58442 11.2467 6.58455 11.3445C6.5843 11.7361 6.48098 12.1208 6.28497 12.4598C6.08897 12.7989 5.80718 13.0804 5.46792 13.276C5.12867 13.4717 4.74389 13.5746 4.35226 13.5745C3.96063 13.5743 3.57594 13.4711 3.23684 13.2751C2.89774 13.0792 2.61618 12.7975 2.42045 12.4583C2.22471 12.1191 2.1217 11.7343 2.12177 11.3427C2.12183 10.9511 2.22496 10.5664 2.4208 10.2272C2.61665 9.88806 2.8983 9.60644 3.23746 9.41062C3.40824 9.31207 3.5329 9.14974 3.58404 8.95931Z" fill="black"/>
</svg>
